<?xml version="1.0" standalone="no"?>
<!DOCTYPE svg PUBLIC "-//W3C//DTD SVG 20010904//EN"
 "http://www.w3.org/TR/2001/REC-SVG-20010904/DTD/svg10.dtd">
<svg version="1.0" xmlns="http://www.w3.org/2000/svg"
 width="512.000000pt" height="512.000000pt" viewBox="0 0 512.000000 512.000000"
 preserveAspectRatio="xMidYMid meet">

<g transform="translate(0.000000,512.000000) scale(0.100000,-0.100000)"
fill="#000000" stroke="none">
<path d="M1735 4427 c-36 -30 -44 -96 -20 -168 28 -88 122 -258 287 -520 110
-175 159 -262 171 -305 28 -99 39 -264 34 -498 l-4 -221 -112 -550 c-72 -353
-111 -568 -109 -600 l2 -50 -43 -8 c-60 -12 -135 -85 -152 -149 l-13 -47 -420
-3 -421 -3 -47 -28 c-31 -18 -57 -44 -75 -74 -24 -42 -27 -58 -31 -163 -4
-103 -2 -118 14 -135 18 -18 75 -18 1773 -12 1424 5 1756 8 1762 19 16 24 10
225 -7 266 -20 49 -60 90 -109 113 -37 17 -72 19 -455 19 l-416 0 -12 45 c-14
51 -67 116 -116 139 -32 15 -33 17 -29 68 4 40 -23 195 -107 618 l-112 565 -1
245 c0 252 11 375 42 465 9 28 86 160 170 295 230 366 292 491 293 591 0 54
-16 84 -54 100 -104 43 -277 -117 -616 -568 -55 -72 -106 -130 -125 -140 -20
-11 -55 -17 -92 -18 -82 0 -119 25 -197 133 -118 164 -296 377 -390 469 -137
131 -205 160 -263 110z m204 -171 c92 -89 208 -227 321 -381 40 -55 86 -116
101 -135 16 -22 42 -88 68 -173 l41 -136 -34 -46 c-75 -98 -55 -226 45 -292
91 -60 221 -29 276 65 47 80 35 177 -31 243 l-25 26 48 150 c45 140 52 156
121 249 188 254 400 488 478 528 30 15 33 15 39 0 18 -48 -63 -213 -254 -514
-152 -240 -187 -299 -208 -360 -28 -77 -45 -246 -45 -448 l0 -192 -32 -20
c-52 -31 -134 -45 -268 -44 -130 0 -216 16 -267 49 -26 17 -26 18 -19 114 9
131 -9 399 -34 494 -22 88 -27 97 -208 385 -196 313 -284 490 -266 537 10 24
59 -8 153 -99z m741 -625 c0 -3 -12 -42 -27 -88 l-27 -83 -41 0 -41 0 -25 88
-25 87 93 0 c51 0 93 -2 93 -4z m-35 -270 c17 -9 39 -34 49 -56 17 -35 18 -42
5 -79 -31 -91 -132 -112 -196 -42 -55 60 -42 132 31 177 38 23 71 23 111 0z
m101 -1420 c79 -222 144 -407 144 -412 0 -5 -132 -9 -305 -9 -168 0 -305 3
-305 7 0 3 69 199 152 434 121 340 155 424 161 406 5 -12 73 -204 153 -426z
m449 -531 c58 -36 66 -67 63 -262 l-3 -173 -695 0 -695 0 -3 173 c-3 194 4
225 61 261 31 20 47 21 636 21 588 0 604 -1 636 -20z m994 -198 c51 -27 71
-73 71 -159 l0 -73 -460 0 -460 0 0 125 0 125 408 0 c375 0 410 -1 441 -18z
m-2409 -117 l0 -125 -455 0 -455 0 0 80 c0 53 5 91 15 110 31 59 31 59 483 60
l412 0 0 -125z"/>
<path d="M2494 4434 c-101 -37 -174 -135 -182 -243 -6 -90 16 -155 73 -219 62
-69 127 -96 220 -90 107 7 183 57 233 152 22 43 27 64 27 131 0 86 -16 129
-71 194 -62 74 -206 110 -300 75z m141 -75 c90 -25 146 -100 146 -194 0 -146
-140 -244 -266 -186 -167 75 -159 315 11 376 48 17 59 18 109 4z"/>
<path d="M1758 3539 c-10 -5 -18 -21 -18 -35 0 -22 13 -31 106 -75 109 -51
139 -56 157 -28 18 29 -1 48 -98 93 -118 55 -126 58 -147 45z"/>
<path d="M3280 3497 c-98 -49 -105 -54 -105 -82 0 -47 36 -44 151 12 80 39
100 54 102 73 3 21 -19 51 -37 50 -3 0 -53 -24 -111 -53z"/>
<path d="M1612 3328 c-17 -17 -15 -55 4 -62 9 -3 64 -6 124 -6 121 0 143 10
122 55 -11 24 -14 25 -125 25 -75 0 -117 -4 -125 -12z"/>
<path d="M3322 3328 c-7 -7 -12 -20 -12 -29 0 -33 24 -40 141 -37 l114 3 3 29
c2 16 -2 32 -10 37 -21 14 -222 11 -236 -3z"/>
<path d="M1852 3180 c-103 -49 -124 -69 -105 -99 17 -27 39 -24 148 25 85 38
107 52 112 72 4 18 1 29 -12 39 -26 18 -27 18 -143 -37z"/>
<path d="M3182 3218 c-7 -7 -12 -23 -12 -36 0 -20 15 -31 105 -73 108 -52 130
-56 148 -28 19 30 -2 50 -105 99 -112 54 -118 56 -136 38z"/>
</g>
</svg>
